<svg width="10" height="10" viewBox="0 0 10 10" fill="none" xmlns="http://www.w3.org/2000/svg">
<g id="LinkedIn">
<path id="Vector" d="M2.24355 3.26718H0.16748V9.88763H2.24355V3.26718Z" fill="black"/>
<path id="Vector_2" d="M7.85919 3.12366C7.78265 3.11409 7.70133 3.10931 7.62001 3.10453C6.4576 3.05669 5.80226 3.74552 5.57265 4.0421C5.51046 4.12343 5.48176 4.17126 5.48176 4.17126V3.2863H3.49658V9.90675H5.48176H5.57265C5.57265 9.23227 5.57265 8.56257 5.57265 7.88809C5.57265 7.52454 5.57265 7.16099 5.57265 6.79744C5.57265 6.34778 5.53916 5.86942 5.76399 5.45804C5.95533 5.11362 6.29975 4.94141 6.68721 4.94141C7.83527 4.94141 7.85919 5.97945 7.85919 6.07512C7.85919 6.0799 7.85919 6.08468 7.85919 6.08468V9.93545H9.93525V5.6159C9.93525 4.13778 9.18423 3.26717 7.85919 3.12366Z" fill="black"/>
<path id="Vector_3" d="M1.20545 2.41091C1.87121 2.41091 2.41092 1.87121 2.41092 1.20546C2.41092 0.539701 1.87121 0 1.20545 0C0.539699 0 0 0.539701 0 1.20546C0 1.87121 0.539699 2.41091 1.20545 2.41091Z" fill="black"/>
</g>
</svg>
