<?xml version="1.0" encoding="UTF-8"?>
<svg width="298px" height="78px" viewBox="0 0 298 78" version="1.1" xmlns="http://www.w3.org/2000/svg" xmlns:xlink="http://www.w3.org/1999/xlink">
    <title>mothership-materials-logo</title>
    <g id="Logos" stroke="none" stroke-width="1" fill="none" fill-rule="evenodd">
        <g id="mothership-materials-logo" transform="translate(0.7461, 0.1034)">
            <polygon id="path-1" points="0 0 297 0 297 77 0 77"></polygon>
            <path d="M168.54608,22.9947071 L174.84008,22.9947071 C174.91208,22.9947071 175.77508,22.7927071 175.92408,22.7467071 C178.23608,22.0397071 178.63608,18.9747071 176.49608,17.7987071 C176.35508,17.7217071 175.64508,17.3827071 175.58108,17.3827071 L168.54608,17.3827071 L168.54608,22.9947071 Z M184.09708,34.3657071 L178.24708,34.3657071 L173.21108,27.7207071 L168.54608,27.7207071 L168.54608,34.3657071 L163.51108,34.3657071 L163.51108,12.6577071 L176.17308,12.6577071 C176.47708,12.6577071 177.70108,13.0067071 178.06508,13.1337071 C183.88008,15.1657071 184.75508,22.7677071 179.78908,26.3047071 C179.48808,26.5187071 178.75308,26.6847071 178.75608,27.0537071 C178.76108,27.6097071 183.69608,33.2247071 184.09708,34.3657071 L184.09708,34.3657071 Z" id="Fill-3" fill="#000000" fill-rule="nonzero"></path>
            <path d="M153.50028,55.8901071 L159.79428,55.8901071 C159.86628,55.8901071 160.72928,55.6881071 160.87828,55.6421071 C163.19028,54.9351071 163.59028,51.8701071 161.45028,50.6941071 C161.30928,50.6171071 160.59928,50.2781071 160.53528,50.2781071 L153.50028,50.2781071 L153.50028,55.8901071 Z M169.05128,67.2611071 L163.20128,67.2611071 L158.16528,60.6161071 L153.50028,60.6161071 L153.50028,67.2611071 L148.46528,67.2611071 L148.46528,45.5531071 L161.12728,45.5531071 C161.43128,45.5531071 162.65528,45.9021071 163.01928,46.0291071 C168.83428,48.0611071 169.70928,55.6631071 164.74328,59.2001071 C164.44228,59.4141071 163.70728,59.5801071 163.71028,59.9491071 C163.71528,60.5051071 168.65028,66.1201071 169.05128,67.2611071 L169.05128,67.2611071 Z" id="Fill-5" fill="#000000" fill-rule="nonzero"></path>
            <path d="M55.93668,16.6854071 C47.04368,17.6624071 49.15268,32.2374071 58.34368,30.0144071 C65.99168,28.1644071 64.30368,15.7664071 55.93668,16.6854071 M55.49568,11.9634071 C71.35768,10.4904071 72.86968,33.8594071 57.67068,34.9544071 C42.28168,36.0634071 40.60668,13.3454071 55.49568,11.9634071" id="Fill-7" fill="#000000" fill-rule="nonzero"></path>
            <polygon id="Fill-9" fill="#000000" fill-rule="nonzero" points="154.34018 12.6575071 154.34018 17.2355071 141.30718 17.2355071 141.30718 21.0015071 141.52918 21.2225071 151.97018 21.2225071 151.97018 25.8005071 141.30718 25.8005071 141.30718 29.7875071 154.34018 29.7875071 154.34018 34.3655071 136.27218 34.3655071 136.27218 12.6575071"></polygon>
            <polygon id="Fill-11" fill="#000000" fill-rule="nonzero" points="138.24788 45.5528071 138.24788 50.1308071 125.21488 50.1308071 125.21488 53.8968071 125.43688 54.1178071 135.87788 54.1178071 135.87788 58.6958071 125.21488 58.6958071 125.21488 62.6828071 138.24788 62.6828071 138.24788 67.2608071 120.17988 67.2608071 120.17988 45.5528071"></polygon>
            <polygon id="Fill-13" fill="#000000" fill-rule="nonzero" points="108.61338 12.6575071 108.61338 21.0745071 118.98038 21.0745071 118.98038 12.6575071 124.01538 12.6575071 124.01538 34.3655071 118.98038 34.3655071 118.98038 25.9485071 108.61338 25.9485071 108.61338 34.3655071 103.42938 34.3655071 103.42938 12.6575071"></polygon>
            <polygon id="Fill-15" fill="#000000" fill-rule="nonzero" points="224.28688 12.6575071 224.28688 21.0745071 234.65388 21.0745071 234.65388 12.6575071 239.68888 12.6575071 239.68888 34.3655071 234.65388 34.3655071 234.65388 25.9485071 224.28688 25.9485071 224.28688 34.3655071 219.10288 34.3655071 219.10288 12.6575071"></polygon>
            <path d="M274.50128,24.3238071 L279.90728,24.3238071 C280.02128,24.3238071 280.95728,24.1288071 281.13928,24.0758071 C284.07028,23.2398071 284.67728,19.3598071 282.01128,17.7958071 C281.73528,17.6338071 280.60828,17.2358071 280.35128,17.2358071 L274.50128,17.2358071 L274.50128,24.3238071 Z M274.50128,28.9018071 L274.50128,34.3658071 L269.31728,34.3658071 L269.31728,12.6578071 L281.38828,12.6578071 C283.16328,12.6578071 285.96328,14.1718071 287.08628,15.5408071 C291.23128,20.5908071 287.75528,28.9018071 281.09128,28.9018071 L274.50128,28.9018071 Z" id="Fill-17" fill="#000000" fill-rule="nonzero"></path>
            <path d="M209.57348,14.1368071 L207.79348,18.2688071 C206.48948,17.7778071 205.18148,17.2708071 203.80148,17.0088071 C202.31948,16.7268071 197.13048,16.1028071 196.97548,18.3448071 C196.90348,19.3948071 198.00348,19.8498071 198.83148,20.1928071 C202.87148,21.8638071 210.36848,22.3488071 210.17248,28.3888071 C209.89848,36.8428071 196.14048,35.4958071 191.06048,32.5918071 L192.98748,28.1628071 C195.76948,29.4388071 198.98948,30.3868071 202.09248,30.0818071 C203.60148,29.9338071 205.62448,28.7818071 204.30848,27.1358071 C203.33348,25.9158071 197.65848,24.9118071 195.80148,24.0998071 C190.22748,21.6648071 189.79948,15.1658071 195.76248,12.9908071 C200.05648,11.4238071 205.51248,12.2238071 209.57348,14.1368071" id="Fill-20" fill="#000000" fill-rule="nonzero"></path>
            <path d="M266.39968,47.0321071 L264.61968,51.1641071 C263.31568,50.6731071 262.00768,50.1661071 260.62768,49.9041071 C259.14568,49.6221071 253.95668,48.9981071 253.80168,51.2401071 C253.72968,52.2901071 254.82968,52.7451071 255.65768,53.0881071 C259.69768,54.7591071 267.19468,55.2441071 266.99868,61.2841071 C266.72468,69.7381071 252.96668,68.3911071 247.88668,65.4871071 L249.81368,61.0581071 C252.59568,62.3341071 255.81568,63.2821071 258.91868,62.9771071 C260.42768,62.8291071 262.45068,61.6771071 261.13468,60.0311071 C260.15968,58.8111071 254.48468,57.8071071 252.62768,56.9951071 C247.05368,54.5601071 246.62568,48.0611071 252.58868,45.8861071 C256.88268,44.3191071 262.33868,45.1191071 266.39968,47.0321071" id="Fill-22" fill="#000000" fill-rule="nonzero"></path>
            <path d="M72.56478,58.4006071 L78.56278,58.4006071 L78.72078,58.1006071 L75.52878,50.5746071 L72.56478,58.4006071 Z M63.82678,67.2606071 L72.43378,45.5706071 L78.56878,45.5416071 L87.37478,67.2606071 L82.33978,67.2606071 L80.57778,62.7746071 L70.88578,62.7066071 L68.78778,67.2606071 L63.82678,67.2606071 Z" id="Fill-24" fill="#000000" fill-rule="nonzero"></path>
            <path d="M201.15328,58.4006071 L207.15128,58.4006071 L207.30928,58.1006071 L204.11728,50.5746071 L201.15328,58.4006071 Z M192.41528,67.2606071 L201.02228,45.5706071 L207.15728,45.5416071 L215.96328,67.2606071 L210.92828,67.2606071 L209.16628,62.7746071 L199.47428,62.7066071 L197.37628,67.2606071 L192.41528,67.2606071 Z" id="Fill-26" fill="#000000" fill-rule="nonzero"></path>
            <polygon id="Fill-28" fill="#000000" fill-rule="nonzero" points="95.98958 12.6575071 95.98958 17.3835071 88.58458 17.3835071 88.58458 34.3655071 83.54958 34.3655071 83.54958 17.3835071 76.14358 17.3835071 76.14358 12.6575071"></polygon>
            <polygon id="Fill-30" fill="#000000" fill-rule="nonzero" points="112.53428 45.5528071 112.53428 50.2788071 105.12928 50.2788071 105.12928 67.2608071 100.09428 67.2608071 100.09428 50.2788071 92.68828 50.2788071 92.68828 45.5528071"></polygon>
            <polygon id="Fill-32" fill="#000000" fill-rule="nonzero" points="230.14768 45.5528071 230.14768 62.5358071 240.81068 62.5358071 240.81068 67.2608071 224.96368 67.2608071 224.96368 45.5528071"></polygon>
            <polygon id="Fill-34" fill="#000000" fill-rule="nonzero" points="251.37458 34.3655071 256.55858 34.3655071 256.55858 12.6575071 251.37458 12.6575071"></polygon>
            <polygon id="Fill-36" fill="#000000" fill-rule="nonzero" points="177.52158 67.2615071 182.70558 67.2615071 182.70558 45.5535071 177.52158 45.5535071"></polygon>
            <polygon id="Fill-1" fill="#000000" fill-rule="nonzero" points="30.32088 12.6579071 22.61988 24.0259071 14.91888 12.6579071 10.25388 12.6579071 10.25388 34.3659071 15.43688 34.3659071 15.43688 21.6659071 20.91788 29.7129071 24.10588 29.7989071 29.80288 21.6659071 29.80288 34.3659071 34.98688 34.3659071 34.98688 12.6579071"></polygon>
            <polygon id="Fill-2" fill="#000000" fill-rule="nonzero" points="49.18668 45.5529071 41.48568 56.9209071 33.78368 45.5529071 29.11968 45.5529071 29.11968 67.2609071 34.30268 67.2609071 34.30268 54.5609071 39.78368 62.6089071 42.97168 62.6939071 48.66868 54.5609071 48.66868 67.2609071 53.85268 67.2609071 53.85268 45.5529071"></polygon>
        </g>
    </g>
</svg>