<svg width="45" height="45" viewBox="0 0 45 45" fill="none" xmlns="http://www.w3.org/2000/svg">
<path id="Icon" d="M43.1429 43.1429H5.65714C4.37702 43.1429 3.73696 43.1429 3.24802 42.8937C2.81794 42.6746 2.46827 42.3249 2.24913 41.8948C2 41.4059 2 40.7658 2 39.4857V2M43.1429 11.1429L30.7216 23.5641C30.269 24.0167 30.0427 24.243 29.7817 24.3278C29.5522 24.4024 29.3049 24.4024 29.0754 24.3278C28.8145 24.243 28.5882 24.0167 28.1356 23.5641L23.8644 19.293C23.4118 18.8404 23.1855 18.6141 22.9246 18.5293C22.6951 18.4547 22.4478 18.4547 22.2183 18.5293C21.9573 18.6141 21.731 18.8404 21.2784 19.293L11.1429 29.4286M43.1429 11.1429H34M43.1429 11.1429V20.2857" stroke="black" stroke-width="3.5" stroke-linecap="square"/>
</svg>
