<svg width="45" height="45" viewBox="0 0 45 45" fill="none" xmlns="http://www.w3.org/2000/svg">
<path id="Vector" d="M22.2857 0C9.99771 0 0 9.99771 0 22.2857C0 34.5737 9.99771 44.5714 22.2857 44.5714C34.5737 44.5714 44.5714 34.5737 44.5714 22.2857C44.5714 9.99771 34.5737 0 22.2857 0ZM22.2857 3.42857C22.8651 3.42857 23.4343 3.4642 24 3.51562V5.14286H27.4286V4.15848C31.6423 5.35677 35.256 7.97882 37.7143 11.4777V17.1429L39.4286 20.5714V22.2857H41.1429C41.1429 22.9131 41.1091 23.5353 41.0491 24.1473C41.0337 24.3119 40.9994 24.47 40.9788 24.6328C40.9222 25.0837 40.8637 25.5315 40.7746 25.9721C40.742 26.1367 40.6984 26.2981 40.6607 26.4609C40.5613 26.8964 40.4545 27.3299 40.3259 27.7533C40.2813 27.8991 40.2299 28.0413 40.1819 28.1853C40.0379 28.6207 39.8847 29.0526 39.7098 29.4743C39.6584 29.5978 39.6022 29.7176 39.5491 29.8393C39.3571 30.2764 39.1559 30.7067 38.933 31.125C38.8799 31.2261 38.8222 31.3253 38.7656 31.423C38.5256 31.855 38.2715 32.2738 37.9989 32.6853C37.9457 32.7658 37.8897 32.8491 37.8348 32.9297C37.5468 33.3497 37.2413 33.7575 36.9208 34.1518C36.8676 34.2169 36.8199 34.2792 36.7667 34.3426C36.4342 34.7421 36.0822 35.1241 35.7188 35.4944C35.6656 35.5476 35.6145 35.6053 35.5614 35.6585C35.1894 36.0271 34.8007 36.3805 34.3996 36.7165C34.343 36.7645 34.2938 36.8142 34.2355 36.8605C33.8343 37.1896 33.4135 37.4964 32.9866 37.7913C32.9198 37.8376 32.8593 37.8907 32.7924 37.9353C32.3827 38.2113 31.9554 38.4619 31.5234 38.7054C29.5109 39.8351 27.2736 40.6129 24.8873 40.9386L31.7645 35.7556L33.6496 33.8705L36 29.1429V27.4286L32.5714 25.7143H30.8571L27.4286 22.2857H24L22.2857 24V25.7143L20.5714 27.4286V30.8571L24 33.5993L20.6116 41.0592C10.9962 40.2054 3.42857 32.1171 3.42857 22.2857C3.42857 16.4434 6.10114 11.214 10.2857 7.75112V8.57143L8.57143 10.2857V14.0558L10.2857 20.5714L18.8571 24H20.5714V22.2857L15.4286 20.5714V17.1429H20.5714L22.2857 12.8571L25.7143 10.2857V8.57143L20.5714 5.14286L18.1071 3.91071C19.4529 3.60557 20.8474 3.42857 22.2857 3.42857ZM20.5714 18.8571V20.5714H24V18.8571H20.5714Z" fill="black"/>
</svg>
