<svg width="42" height="48" viewBox="0 0 42 48" fill="none" xmlns="http://www.w3.org/2000/svg">
<path id="Vector" d="M22.2857 0C21.3415 0 20.5714 0.77009 20.5714 1.71429C20.5714 2.65848 21.3415 3.42857 22.2857 3.42857C23.2299 3.42857 24 2.65848 24 1.71429C24 0.77009 23.2299 0 22.2857 0ZM17.1429 5.14286C16.1987 5.14286 15.4286 5.91295 15.4286 6.85714H10.2857V10.2857H12V23.4107L1.44643 37.0179C0.515625 38.2165 0 39.683 0 41.1964C0 44.9397 3.06027 48 6.80357 48H34.3393C38.0826 48 41.1429 44.9397 41.1429 41.1964C41.1429 39.683 40.6272 38.2165 39.6964 37.0179L29.1429 23.4107V10.2857H30.8571V6.85714H18.8571C18.8571 5.91295 18.0871 5.14286 17.1429 5.14286ZM15.4286 10.2857H25.7143V24.5893L30.5893 30.8571H10.5536L15.4286 24.5893V10.2857ZM22.2857 17.1429C21.3415 17.1429 20.5714 17.9129 20.5714 18.8571C20.5714 19.8013 21.3415 20.5714 22.2857 20.5714C23.2299 20.5714 24 19.8013 24 18.8571C24 17.9129 23.2299 17.1429 22.2857 17.1429ZM7.875 34.2857H33.2679L37.0179 39.1071C37.4799 39.7031 37.7143 40.4464 37.7143 41.1964C37.7143 43.0915 36.2344 44.5714 34.3393 44.5714H6.80357C4.90848 44.5714 3.42857 43.0915 3.42857 41.1964C3.42857 40.4464 3.66295 39.7031 4.125 39.1071L7.875 34.2857Z" fill="black"/>
</svg>
