<svg width="45" height="45" viewBox="0 0 45 45" fill="none" xmlns="http://www.w3.org/2000/svg">
<path id="Icon" d="M43.1429 43.1429H5.65714C4.37702 43.1429 3.73696 43.1429 3.24802 42.8937C2.81794 42.6746 2.46827 42.3249 2.24913 41.8948C2 41.4059 2 40.7658 2 39.4857V2M43.1429 29.4286L30.7216 17.0073C30.269 16.5547 30.0427 16.3284 29.7817 16.2436C29.5522 16.169 29.3049 16.169 29.0754 16.2436C28.8145 16.3284 28.5882 16.5547 28.1356 17.0073L23.8644 21.2784C23.4118 21.731 23.1855 21.9573 22.9246 22.0421C22.6951 22.1167 22.4478 22.1167 22.2183 22.0421C21.9573 21.9573 21.731 21.731 21.2784 21.2784L11.1429 11.1429M43.1429 29.4286H34M43.1429 29.4286V20.2857" stroke="black" stroke-width="3.5" stroke-linecap="square"/>
</svg>
