<svg width="1024" height="1024" xmlns="http://www.w3.org/2000/svg" data-name="Layer 1" stroke="null">
 <g stroke="null">
  <title stroke="null">Layer 1</title>
  <path d="m162.76047,1747.22864l-158.4995,-1695.59436l2000.86537,2053.09692l-1842.36586,-357.50256l-0.00002,0z" id="svg_43" transform="rotate(134.918 1004.69 1078.18)" stroke="null"/>
  <path d="m130.86569,320.09979a65.99277,65.99277 0 0 0 2.18945,16.62402a57.31257,57.31257 0 0 0 7.75014,16.99188a67.62031,67.62031 0 0 0 13.34973,14.99664a62.56331,62.56331 0 0 0 20.01485,10.59824a83.77943,83.77943 0 0 0 26.87367,4.01068a89.26267,89.26267 0 0 0 31.65947,-5.48325a55.43316,55.43316 0 0 0 24.12216,-17.18579a42.4516,42.4516 0 0 0 9.68759,-27.60986a46.77233,46.77233 0 0 0 -3.87494,-19.37527a36.01895,36.01895 0 0 0 -9.86206,-13.56268a51.61618,51.61618 0 0 0 -14.97711,-8.21524a97.28411,97.28411 0 0 0 -17.43771,-4.76633c-5.48331,-0.85239 -11.81912,-1.56921 -19.00735,-2.18924q-93.93224,-8.21518 -93.93224,-71.51433a68.84096,68.84096 0 0 1 5.54137,-27.86165a62.75707,62.75707 0 0 1 14.60919,-21.04155a81.90002,81.90002 0 0 1 21.0224,-14.26036a108.5025,108.5025 0 0 1 24.66498,-8.23459q6.39381,-1.2787 12.7877,-1.93745t12.80719,-0.63939a107.20434,107.20434 0 0 1 32.33745,4.94083a100.53918,100.53918 0 0 1 28.32669,14.04695a70.00349,70.00349 0 0 1 20.65421,23.25046a73.12293,73.12293 0 0 1 8.71875,31.69795l-29.79916,5.28958q-2.55756,-25.57538 -19.37526,-38.7507t-40.92084,-13.1752a86.10448,86.10448 0 0 0 -21.93294,2.75134a68.95721,68.95721 0 0 0 -19.18167,8.21513a42.81973,42.81973 0 0 0 -14.10544,14.82224a40.99844,40.99844 0 0 0 -5.48318,21.19649q0,38.01445 64.6945,44.23355l14.24103,1.64725c2.0731,0.2518 4.30144,0.54245 6.68454,0.91049s4.9601,0.85248 7.75015,1.47253s5.40565,1.20126 7.847,1.82135s4.68877,1.2207 6.76202,1.82132s4.26251,1.33685 6.58751,2.18933s4.6888,1.84073 7.13008,2.92578a71.32101,71.32101 0 0 1 12.59393,7.13007a87.34451,87.34451 0 0 1 10.42401,9.31946a53.72811,53.72811 0 0 1 8.40881,12.07068a64.79149,64.79149 0 0 1 5.28937,15.34531a87.46075,87.46075 0 0 1 1.93759,18.81351a66.53528,66.53528 0 0 1 -12.78769,40.57187a82.73316,82.73316 0 0 1 -34.7205,26.8736a124.97162,124.97162 0 0 1 -49.34903,9.31943a132.31491,132.31491 0 0 1 -37.82089,-5.07642a91.64586,91.64586 0 0 1 -28.69502,-13.56247a88.46828,88.46828 0 0 1 -19.37559,-19.49161a82.75253,82.75253 0 0 1 -11.62522,-22.84354a86.45323,86.45323 0 0 1 -4.03006,-23.57983l30.82637,-5.5412z" id="svg_1" stroke="null"/>
  <path d="m401.5657,142.49777l30.6134,0l131.40421,208.1492l0,-208.1492l31.00061,0l0,263.50427l-30.63245,0l-131.38486,-207.76131l0,207.78069l-31.00092,0l0,-263.52365z" id="svg_2" stroke="null"/>
  <path d="m719.27307,349.41083q-13.13666,-30.88443 -13.15619,-75.11826a211.38611,211.38611 0 0 1 6.58777,-54.63831a130.00923,130.00923 0 0 1 19.37549,-42.7612a87.63513,87.63513 0 0 1 33.09314,-27.95863a105.07304,105.07304 0 0 1 46.59808,-9.86217q51.90668,0 79.43915,39.64203l17.90283,-17.53458l16.44983,16.44952l-21.93298,22.10745q13.00092,30.69031 12.98145,74.55594q0,40.57217 -11.16016,70.17734a102.37984,102.37984 0 0 1 -35.08899,47.50851q-23.92847,17.5538 -58.64941,17.5538q-52.64313,0 -80.60175,-39.29315l-15.71344,15.7135l-16.44995,-16.44977l20.32513,-20.09207l0,0.00003zm19.74341,-75.0213q0,29.43112 6.02563,49.89139l123.90594,-123.51752q-19.54974,-34.48801 -57.1767,-34.46855q-34.87585,0 -53.92194,28.32675t-18.8136,79.86491l-0.01935,-0.09698zm14.97729,74.01398q18.29028,34.73981 57.75812,34.72037q34.72083,0 53.72791,-28.50125t18.8136,-80.23309a177.49844,177.49844 0 0 0 -6.3938,-49.69745l-123.90582,123.53683l0,0.17459z" id="svg_3" stroke="null"/>
  <path d="m99.10607,692.04816q0,-40.02917 11.50899,-70.17725t35.28278,-47.68268q23.73491,-17.55414 57.56422,-17.55414a101.95359,101.95359 0 0 1 33.24802,5.30872a86.76324,86.76324 0 0 1 25.69211,13.05933a108.96751,108.96751 0 0 1 30.14795,38.5567a142.77765,142.77765 0 0 1 6.58801,18.63892l-30.43909,5.59961a118.0352,118.0352 0 0 0 -5.48303,-13.69843a85.58134,85.58134 0 0 0 -8.95151,-14.26007a100.44231,100.44231 0 0 0 -12.61366,-13.15607a58.01008,58.01008 0 0 0 -16.99219,-9.31934a64.53961,64.53961 0 0 0 -21.31271,-3.64258q-35.63167,0 -53.72838,28.11377t-18.07709,79.98102q0,52.31342 18.07709,80.5238t53.65076,28.21033a63.33833,63.33833 0 0 0 38.75082,-13.34961a72.44479,72.44479 0 0 0 12.78784,-13.15564a82.26814,82.26814 0 0 0 8.95139,-14.18268a89.3983,89.3983 0 0 0 5.30908,-13.71796l30.32251,5.677a88.83641,88.83641 0 0 1 -6.20044,18.6391a102.96111,102.96111 0 0 1 -12.245,19.91791a99.08604,99.08604 0 0 1 -18.27112,18.50323a86.37575,86.37575 0 0 1 -25.76913,13.25281a100.98482,100.98482 0 0 1 -33.07394,5.32825q-33.82968,0 -57.5643,-17.53448t-35.28259,-47.70215q-11.50941,-30.12848 -11.50941,-70.35193l-0.36798,0.1745z" id="svg_4" fill="#ffffff" stroke="null"/>
  <path d="m482.7489,559.87164l31.00079,0l87.53809,263.50415l-32.16321,0l-19.91785,-57.5639l-102.08905,0l-20.09222,57.5639l-32.16357,0l87.88702,-263.50415zm57.56439,178.54358l-41.87054,-136.13086l-42.37375,136.13086l84.24429,0z" id="svg_5" fill="#ffffff" stroke="null"/>
  <path d="m720.32892,560.02142l110.28479,0q33.0542,0 53.30176,22.12659t20.26672,55.91724q0,33.96509 -20.07275,56.09155t-53.12769,21.93298l-79.20679,0l0,107.08728l-31.00061,0l-0.44543,-263.15564zm109.66467,129.58209q18.25159,0 30.6908,-15.7326a55.84003,55.84003 0 0 0 12.43896,-35.63135a55.20064,55.20064 0 0 0 -12.43896,-35.4566q-12.40015,-15.34528 -30.6908,-15.34528l-78.58643,0l0,102.16583l78.58643,0z" id="svg_6" fill="#ffffff" stroke="null"/>
  <path opacity="NaN" d="m986.95282,128.49655l-218.35699,-83.16911" id="svg_40" stroke="null"/>
  <path opacity="NaN" d="m-0.39724,489.14539" id="svg_41" stroke="null"/>
 </g>

</svg>