<svg id="Layer_1" data-name="Layer 1" xmlns="http://www.w3.org/2000/svg" viewBox="0 0 32 32"><path d="M3.3,17.76a2.3,2.3,0,0,0,.09.64,2.48,2.48,0,0,0,.31.66,2.56,2.56,0,0,0,.51.58,2.21,2.21,0,0,0,.78.41,3.11,3.11,0,0,0,1,.16A3.43,3.43,0,0,0,7.25,20a2.2,2.2,0,0,0,.94-.67,1.65,1.65,0,0,0,.38-1.07,1.79,1.79,0,0,0-.15-.75A1.44,1.44,0,0,0,8,17a2.26,2.26,0,0,0-.58-.32,3.37,3.37,0,0,0-.67-.18L6,16.39q-3.65-.32-3.64-2.77a2.74,2.74,0,0,1,.21-1.08,2.41,2.41,0,0,1,.57-.81A3.08,3.08,0,0,1,4,11.17a5.15,5.15,0,0,1,1-.32l.5-.07a4,4,0,0,1,.49,0,4.3,4.3,0,0,1,2.36.73,3,3,0,0,1,.8.9,2.72,2.72,0,0,1,.37,1.24l-1.17.2a2,2,0,0,0-.75-1.5A2.52,2.52,0,0,0,6,11.81a3.35,3.35,0,0,0-.85.11,2.74,2.74,0,0,0-.75.32,1.58,1.58,0,0,0-.77,1.39c0,1,.84,1.56,2.51,1.72l.39,0,.34,0,.72.15a3.7,3.7,0,0,1,.71.23,6.88,6.88,0,0,1,.61.36,2.06,2.06,0,0,1,.51.51,2.21,2.21,0,0,1,.32.69,2.9,2.9,0,0,1,.13.91,2.66,2.66,0,0,1-.49,1.57A3.14,3.14,0,0,1,8,20.91a4.85,4.85,0,0,1-1.91.36,5.17,5.17,0,0,1-1.47-.2,3.58,3.58,0,0,1-1.11-.53,3.34,3.34,0,0,1-.75-.75,3.14,3.14,0,0,1-.46-.89A3.55,3.55,0,0,1,2.14,18Z"/><path d="M11.37,10.89h1.17L17.68,19V10.89h1.2V21.11H17.69l-5.13-8.06v8.06H11.37Z"/><path d="M21.37,18.94a6.9,6.9,0,0,1-.57-3,7.36,7.36,0,0,1,.47-2.73,4.07,4.07,0,0,1,1.43-1.85,3.86,3.86,0,0,1,2.3-.68,3.66,3.66,0,0,1,3.12,1.5l.34-.34.4-.41L29,11.3l.16-.17.66.64L28.58,13a6.81,6.81,0,0,1,.58,3,7.37,7.37,0,0,1-.46,2.73,4.05,4.05,0,0,1-1.41,1.85,3.84,3.84,0,0,1-2.3.68,3.65,3.65,0,0,1-3.15-1.49l-1.09,1.09-.63-.64Zm.7-3a6.59,6.59,0,0,0,.27,2l5-4.95A2.55,2.55,0,0,0,25,11.79a2.48,2.48,0,0,0-2.19,1.09,5.44,5.44,0,0,0-.75,3.1Zm.63,2.93A2.51,2.51,0,0,0,25,20.18a2.46,2.46,0,0,0,2.17-1.1,5.42,5.42,0,0,0,.75-3.1,6.17,6.17,0,0,0-.29-2L22.7,18.91Z"/></svg>