<svg width="182" height="43" viewBox="0 0 182 43" fill="none" xmlns="http://www.w3.org/2000/svg">
<g id="sofab logo 1" clip-path="url(#clip0_49_601)">
<g id="Group">
<g id="Sofab-Logotext-White">
<g id="Clip path group">
<mask id="mask0_49_601" style="mask-type:luminance" maskUnits="userSpaceOnUse" x="0" y="0" width="182" height="43">
<g id="_clip1">
<path id="Vector" d="M181.936 0H0.0556641V42.9921H181.936V0Z" fill="white"/>
</g>
</mask>
<g mask="url(#mask0_49_601)">
<g id="Group_2">
<g id="Group_3">
<g id="Group_4">
<path id="Vector_2" d="M7.00266 35.2886L6.99795 35.299C6.99795 35.299 9.69556 34.137 11.1392 34.9806C12.1792 35.5886 12.6543 37.2878 12.8392 38.1887C12.9911 39.8465 13.9099 41.4064 15.444 42.3026C17.9559 43.771 21.1688 42.9003 22.6187 40.3567C24.0694 37.8171 23.2088 34.5652 20.6968 33.0992C19.1604 32.2014 17.3635 32.1776 15.8664 32.8764C14.9901 33.1557 13.2609 33.5831 12.2681 33.0037C11.1856 32.3702 10.6907 30.3766 10.5302 29.564C10.3241 27.9842 9.41943 26.5118 7.94829 25.6531C5.43635 24.1863 2.22345 25.0569 0.772766 27.5989C-0.677128 30.1401 0.182739 33.3905 2.69547 34.8564C4.05647 35.6523 5.622 35.7606 7.00266 35.2886ZM7.55021 18.9073C8.41637 18.6176 10.1015 18.1894 11.1392 18.7935C12.5828 19.6371 12.9383 22.581 12.9383 22.581L12.9486 22.5627C13.2341 24.0104 14.1113 25.3315 15.4747 26.1266C16.8357 26.9225 18.402 27.0307 19.7819 26.5603L19.7772 26.5691C19.7772 26.5691 22.4748 25.4087 23.9176 26.2508C24.9592 26.8604 25.4343 28.5595 25.6184 29.4621C25.7711 31.1183 26.6899 32.6782 28.2224 33.5727C30.7351 35.0411 33.9473 34.1704 35.3979 31.6284C36.8486 29.0872 35.988 25.8353 33.4752 24.3693C31.9396 23.4716 30.1428 23.4477 28.6465 24.1465C27.7709 24.4259 26.0409 24.8548 25.0465 24.2738C23.9624 23.6403 23.4684 21.6379 23.3087 20.8293C23.1018 19.2503 22.1971 17.7819 20.7275 16.9232C19.2571 16.0645 17.5469 16.0072 16.0907 16.6152C15.3236 16.8795 13.3553 17.4509 12.2681 16.8158C11.2949 16.2483 10.7969 14.5794 10.59 13.6586C10.4563 11.9753 9.5335 10.3852 7.97897 9.47789C5.46624 8.00952 2.25413 8.88098 0.803449 11.4222C-0.647233 13.965 0.213421 17.2145 2.72615 18.6813C4.26022 19.5774 6.05469 19.6021 7.55021 18.9073ZM19.7819 10.3732L19.7772 10.382C19.7772 10.382 19.8291 10.3597 19.9227 10.3231L19.9408 10.3167C19.9502 10.3128 19.9605 10.3088 19.9699 10.3056L19.9998 10.2937C20.674 10.0398 22.7249 9.36809 23.9176 10.0653C24.9592 10.6733 25.4343 12.374 25.6184 13.275C25.7711 14.9312 26.6891 16.491 28.2224 17.3872C30.7351 18.854 33.9473 17.9833 35.3979 15.4413C36.8486 12.9001 35.988 9.6498 33.4752 8.18223C31.9412 7.28608 30.1451 7.2622 28.6488 7.95858C27.7732 8.23793 26.0409 8.66771 25.0465 8.08673C23.9624 7.45322 23.4676 5.45002 23.3087 4.64222C23.101 3.06322 22.1971 1.59486 20.7275 0.73692C18.2155 -0.730656 15.0027 0.140015 13.552 2.68121C12.1013 5.22321 12.962 8.47353 15.4747 9.94111C16.8357 10.7354 18.4012 10.8444 19.7819 10.3732Z" fill="#C5C5C5" fill-opacity="0.98"/>
</g>
</g>
<g id="Group_5">
<g id="Group_6">
<g id="Group_7">
<path id="Vector_3" d="M59.2838 39.5724C55.5968 39.5724 52.7134 38.8073 50.6336 37.277C48.5537 35.7468 47.4665 33.5949 47.3247 30.8214H54.0369C54.1787 31.6343 54.6514 32.3994 55.5496 33.0689C56.4004 33.6905 57.6767 34.0253 59.4256 34.0253C60.7492 34.0253 61.8364 33.7862 62.7345 33.308C63.5853 32.8776 64.0108 32.2081 64.0108 31.3474C64.0108 30.5823 63.6799 29.9606 63.0181 29.4824C62.3563 29.052 61.1746 28.7173 59.4729 28.526L57.4403 28.3347C54.3206 28 52.0044 27.1392 50.4445 25.7046C48.8846 24.27 48.081 22.4529 48.081 20.2054C48.081 18.3404 48.5537 16.8101 49.4518 15.5668C50.3499 14.3235 51.6262 13.3671 53.2806 12.7455C54.8878 12.1238 56.7313 11.7891 58.8111 11.7891C62.1673 11.7891 64.8616 12.5064 66.8942 13.9888C68.9268 15.4712 70.0139 17.6231 70.1085 20.4445H63.3963C63.2544 19.5837 62.829 18.8664 62.0727 18.2447C61.3164 17.6709 60.1819 17.384 58.7166 17.384C57.5349 17.384 56.6367 17.6231 55.9277 18.0535C55.2187 18.4838 54.8878 19.1055 54.8878 19.8706C54.8878 20.5879 55.1714 21.1618 55.7859 21.5443C56.4004 21.9269 57.3458 22.2138 58.7166 22.3572L60.7492 22.5485C63.9162 22.8833 66.4215 23.7918 68.1704 25.2264C69.9194 26.661 70.8175 28.5738 70.8175 31.0126C70.8175 32.782 70.3448 34.2644 69.3994 35.5555C68.4541 36.8467 67.1305 37.8509 65.3816 38.5204C63.6326 39.2377 61.6 39.5724 59.2838 39.5724Z" fill="black"/>
</g>
<g id="Group_8">
<path id="Vector_4" d="M88.354 39.6679C86.0851 39.6679 84.0525 39.2854 82.3036 38.5681C80.5546 37.8508 79.042 36.8944 77.813 35.6511C76.6312 34.4077 75.6859 32.9732 75.0714 31.3473C74.4569 29.7692 74.126 28.0477 74.126 26.2784V25.1785C74.126 23.3614 74.4569 21.6399 75.0714 19.9662C75.7331 18.3403 76.6785 16.9057 77.9075 15.6624C79.1838 14.4191 80.6964 13.4148 82.4454 12.6975C84.1943 11.9802 86.1796 11.6455 88.354 11.6455C90.5757 11.6455 92.6083 11.9802 94.3572 12.6975C96.0589 13.4148 97.5715 14.4191 98.8005 15.6624C100.03 16.9057 100.975 18.3403 101.637 19.9662C102.298 21.6399 102.629 23.3614 102.629 25.1785V26.2784C102.629 28.0477 102.298 29.7692 101.684 31.3473C101.069 32.9732 100.124 34.4077 98.9423 35.6511C97.7133 36.8944 96.2007 37.8508 94.4518 38.5681C92.7028 39.2854 90.6702 39.6679 88.354 39.6679ZM88.354 33.2123C89.8194 33.2123 91.0484 32.8775 92.041 32.2559C93.0337 31.6342 93.79 30.7256 94.3099 29.5779C94.7826 28.4303 95.0663 27.1391 95.0663 25.7524C95.0663 24.2699 94.7826 22.931 94.2627 21.7833C93.7427 20.6835 92.9864 19.7749 91.9938 19.1054C91.0011 18.4359 89.7721 18.1012 88.354 18.1012C86.9832 18.1012 85.7542 18.4359 84.7616 19.1054C83.7689 19.7749 83.0126 20.6835 82.4926 21.7833C81.9254 22.931 81.6891 24.2699 81.6891 25.7524C81.6891 27.1391 81.9254 28.4303 82.4454 29.5779C82.9653 30.7256 83.7216 31.6342 84.7143 32.2559C85.7069 32.8775 86.9359 33.2123 88.354 33.2123Z" fill="black"/>
</g>
<g id="Group_9">
<path id="Vector_5" d="M108.492 38.7597V12.3154C108.492 9.30271 109.343 7.05517 111.044 5.57276C112.746 4.09034 115.251 3.37305 118.56 3.37305H121.869V9.11143H118.229C117.379 9.11143 116.717 9.35053 116.244 9.82872C115.771 10.3069 115.535 10.9764 115.535 11.8372V38.7597H108.492ZM105.419 18.6754V13.0805H122.247V18.6754H105.419Z" fill="black"/>
</g>
<g id="Group_10">
<path id="Vector_6" d="M141.533 38.7597V31.0129H140.257V22.5966C140.257 21.2576 139.926 20.2534 139.311 19.5839C138.697 18.9144 137.657 18.5797 136.286 18.5797C135.577 18.5797 134.679 18.5797 133.544 18.6275C132.41 18.6753 131.228 18.7232 130.046 18.771C128.865 18.8188 127.777 18.9144 126.785 18.9623V12.5066C127.494 12.4588 128.345 12.3631 129.337 12.3153C130.33 12.2675 131.323 12.2197 132.363 12.1718C133.402 12.124 134.395 12.124 135.293 12.124C137.94 12.124 140.162 12.5066 141.958 13.2717C143.802 14.0368 145.173 15.1845 146.118 16.7147C147.063 18.2928 147.536 20.2534 147.536 22.6922V38.7597H141.533ZM133.261 39.4291C131.417 39.4291 129.763 39.0944 128.392 38.4249C126.974 37.7555 125.887 36.7991 125.083 35.5079C124.28 34.2646 123.901 32.7822 123.901 31.0129C123.901 29.1001 124.374 27.522 125.367 26.2787C126.359 25.0832 127.73 24.1746 129.479 23.553C131.228 22.9791 133.261 22.6922 135.577 22.6922H141.107V26.9482H135.53C134.206 26.9482 133.213 27.2829 132.504 27.9046C131.795 28.574 131.417 29.4826 131.417 30.5825C131.417 31.6345 131.795 32.4953 132.504 33.1648C133.213 33.7864 134.206 34.1211 135.53 34.1211C136.38 34.1211 137.137 33.9777 137.846 33.6429C138.508 33.356 139.075 32.83 139.5 32.1127C139.926 31.3954 140.209 30.3434 140.257 29.0522L142.053 30.965C141.911 32.7822 141.486 34.3124 140.776 35.5557C140.067 36.7991 139.075 37.7555 137.846 38.4249C136.57 39.0944 135.057 39.4291 133.261 39.4291Z" fill="black"/>
</g>
<g id="Group_11">
<path id="Vector_7" d="M169.894 39.6203C167.767 39.6203 165.923 39.1421 164.316 38.2335C162.709 37.3728 161.433 36.0338 160.535 34.3123C159.637 32.5908 159.117 30.4867 159.069 28.0001H159.968V38.7596H153.964V3.85107H161.527V21.5922L159.731 23.8876C159.826 21.2575 160.298 19.01 161.244 17.1928C162.142 15.4235 163.371 14.0367 164.931 13.1281C166.491 12.2195 168.287 11.7892 170.32 11.7892C172.068 11.7892 173.676 12.1239 175.141 12.7456C176.559 13.415 177.788 14.3714 178.781 15.5191C179.773 16.7146 180.577 18.1492 181.144 19.7751C181.664 21.401 181.948 23.1703 181.948 25.0831V26.1351C181.948 28.0479 181.664 29.8172 181.144 31.4431C180.577 33.069 179.773 34.5036 178.733 35.6991C177.646 36.9424 176.37 37.8988 174.905 38.5683C173.439 39.2856 171.738 39.6203 169.894 39.6203ZM167.909 33.2125C169.185 33.2125 170.32 32.8777 171.312 32.2561C172.258 31.6344 173.014 30.7258 173.534 29.5303C174.054 28.3827 174.337 27.0915 174.337 25.6091C174.337 24.1267 174.054 22.7877 173.534 21.6879C173.014 20.588 172.258 19.6794 171.312 19.1056C170.32 18.4361 169.185 18.1492 167.909 18.1492C166.774 18.1492 165.687 18.4361 164.694 18.9621C163.702 19.4882 162.898 20.2533 162.284 21.2575C161.622 22.3095 161.338 23.505 161.338 24.9396V26.709C161.338 28.0957 161.669 29.2434 162.331 30.1998C162.946 31.204 163.796 31.9213 164.789 32.4473C165.782 32.9734 166.822 33.2125 167.909 33.2125Z" fill="black"/>
</g>
</g>
</g>
</g>
</g>
</g>
</g>
</g>
</g>
<defs>
<clipPath id="clip0_49_601">
<rect width="182" height="42.9921" fill="white"/>
</clipPath>
</defs>
</svg>
