<svg xmlns="http://www.w3.org/2000/svg" xmlns:xlink="http://www.w3.org/1999/xlink" viewBox="0 0 126 28">
	<g>
		<defs>
			<linearGradient id="idss11023999309_1g902684843" x1="0.49661691542288544" x2="0.5012935323383085" y1="-0.18" y2="0.76">
				<stop offset="0" stop-color="rgb(255,152,0)" stop-opacity="1"></stop>
				<stop offset="1" stop-color="rgb(238,39,55)" stop-opacity="1"></stop>
			</linearGradient>
		</defs>
		<path d="M 124.915 2.86 L 119.593 8.19 L 122.473 1.226 L 121.057 0.638 L 118.176 7.602 L 118.176 0.065 L 116.642 0.065 L 116.642 7.602 L 113.762 0.638 L 112.345 1.226 L 115.225 8.19 L 109.903 2.86 L 108.818 3.947 L 117.409 12.55 L 126 3.947 Z" fill="url(#idss11023999309_1g902684843)"></path>
	</g>
	<path d="M 0 0.078 L 11.93 0.078 C 16.758 0.078 20.015 2.868 20.015 7.034 C 20.015 9.51 18.406 11.751 16.286 12.655 C 19.308 13.519 21.545 16.231 21.545 19.375 C 21.545 24.327 17.66 27.589 12.009 27.589 L 0 27.589 Z M 14.049 8.017 C 14.049 6.445 12.754 5.344 10.949 5.344 L 6.24 5.344 L 6.24 10.689 L 10.949 10.689 C 12.754 10.689 14.049 9.628 14.049 8.017 Z M 15.305 18.904 C 15.305 16.939 13.696 15.602 11.381 15.602 L 6.24 15.602 L 6.24 22.323 L 11.381 22.323 C 13.696 22.323 15.305 20.908 15.305 18.903 Z M 24.37 0.078 L 30.178 0.078 L 30.178 27.589 L 24.37 27.589 Z M 33.16 17.646 C 33.16 11.672 37.595 7.467 43.678 7.467 C 49.8 7.467 54.195 11.672 54.195 17.646 C 54.195 23.659 49.761 27.904 43.678 27.904 C 37.555 27.904 33.16 23.62 33.16 17.646 Z M 48.387 17.646 C 48.387 14.502 46.464 12.379 43.678 12.379 C 40.891 12.379 39.007 14.463 39.007 17.646 C 39.007 20.83 40.891 22.991 43.678 22.991 C 46.464 22.991 48.387 20.829 48.387 17.646 Z M 56.236 17.646 C 56.236 11.672 60.67 7.467 66.753 7.467 C 72.875 7.467 77.271 11.672 77.271 17.646 C 77.271 23.659 72.836 27.904 66.753 27.904 C 60.631 27.904 56.236 23.62 56.236 17.646 Z M 71.463 17.646 C 71.463 14.502 69.539 12.379 66.753 12.379 C 63.967 12.379 62.083 14.463 62.083 17.646 C 62.083 20.83 63.967 22.991 66.753 22.991 C 69.54 22.991 71.463 20.829 71.463 17.646 Z M 111.374 14.895 L 111.374 27.589 L 105.605 27.589 L 105.605 16.152 C 105.605 13.873 104.428 12.537 102.544 12.537 C 100.071 12.537 98.737 14.816 98.737 17.725 L 98.737 27.589 L 92.929 27.589 L 92.929 16.152 C 92.929 13.873 91.83 12.537 89.907 12.537 C 87.435 12.537 86.061 14.816 86.061 17.725 L 86.061 27.589 L 80.253 27.589 L 80.253 7.781 L 86.061 7.781 L 86.061 10.179 C 87.199 8.606 89.475 7.467 92.105 7.467 C 94.695 7.467 96.971 8.685 97.717 10.375 C 99.208 8.685 101.72 7.467 104.114 7.467 C 108.352 7.467 111.374 10.257 111.374 14.895 Z" fill="rgb(255,255,255)"></path>
</svg>