<svg width="45" height="36" viewBox="0 0 45 36" fill="none" xmlns="http://www.w3.org/2000/svg">
<path id="Vector" d="M0 0V32.5714H17.1429C19.0313 32.5714 20.5714 34.1116 20.5714 36H24C24 34.1116 25.5402 32.5714 27.4286 32.5714H44.5714V0H27.4286C25.3862 0 23.5446 0.904018 22.2857 2.33036C21.0268 0.904018 19.1853 0 17.1429 0H0ZM3.42857 3.42857H17.1429C19.0313 3.42857 20.5714 4.96875 20.5714 6.85714H24C24 4.96875 25.5402 3.42857 27.4286 3.42857H41.1429V29.1429H27.4286C25.3862 29.1429 23.5446 30.0469 22.2857 31.4732C21.0268 30.0469 19.1853 29.1429 17.1429 29.1429H3.42857V3.42857ZM20.5714 10.2857V13.7143H24V10.2857H20.5714ZM20.5714 17.1429V20.5714H24V17.1429H20.5714ZM20.5714 24V27.4286H24V24H20.5714Z" fill="black"/>
</svg>
