<svg width="42" height="42" viewBox="0 0 42 42" fill="none" xmlns="http://www.w3.org/2000/svg">
<path id="Vector" d="M15.4286 0C12.154 0 9.50223 2.37723 8.83929 5.46429C4.84152 6.1808 1.71429 9.51562 1.71429 13.7143C1.71429 14.1362 1.76116 14.5112 1.82143 14.8929C0.716518 16.5201 0 18.4353 0 20.5714C0 23.6518 1.53348 26.2433 3.69643 28.125C3.54241 28.7344 3.42857 29.3438 3.42857 30C3.42857 34.2388 6.90402 37.7143 11.1429 37.7143C11.1897 37.7143 11.2098 37.7143 11.25 37.7143C12.2478 39.6496 13.9754 41.1429 16.2857 41.1429C17.9598 41.1429 19.4799 40.4397 20.5714 39.3214C21.6629 40.4397 23.183 41.1429 24.8571 41.1429C27.1674 41.1429 28.8951 39.6496 29.8929 37.7143C29.933 37.7143 29.9531 37.7143 30 37.7143C34.0246 37.7143 37.3259 34.5804 37.6607 30.6429H37.7143C37.7143 30.5357 37.6674 30.4286 37.6607 30.3214C37.6674 30.2143 37.7143 30.1071 37.7143 30C37.7143 29.3638 37.4866 28.8214 37.3393 28.2321C39.5625 26.3438 41.1429 23.7054 41.1429 20.5714C41.1429 18.4353 40.4263 16.5201 39.3214 14.8929C39.3817 14.5112 39.4286 14.1362 39.4286 13.7143C39.4286 9.51562 36.3013 6.1808 32.3036 5.46429C31.6406 2.37723 28.9888 0 25.7143 0C23.6585 0 21.8304 0.95759 20.5714 2.41071C19.3125 0.95759 17.4844 0 15.4286 0ZM15.4286 3.42857C17.3438 3.42857 18.8571 4.94197 18.8571 6.85714V10.2857C18.8571 13.1451 16.5737 15.4286 13.7143 15.4286V18.8571C15.6563 18.8571 17.4174 18.1875 18.8571 17.0893V35.1429C18.8571 36.5826 17.7254 37.7143 16.2857 37.7143C15.0067 37.7143 13.9821 36.8304 13.7679 35.625L13.4464 33.9643L11.7857 34.2321C11.4844 34.279 11.2969 34.2857 11.1429 34.2857C8.75893 34.2857 6.85714 32.3839 6.85714 30C6.85714 29.471 6.9442 28.9754 7.125 28.5C7.13839 28.4598 7.16518 28.433 7.17857 28.3929C7.70759 27.0737 8.85938 26.1094 10.2857 25.8214L9.58929 22.4464C7.80134 22.808 6.24777 23.7589 5.14286 25.125C4.06473 23.9196 3.42857 22.3259 3.42857 20.5714C3.42857 18.9643 3.97768 17.5313 4.92857 16.3393L5.46429 15.6964L5.30357 14.8393C5.20982 14.4375 5.14286 14.0826 5.14286 13.7143C5.14286 10.8549 7.42634 8.57143 10.2857 8.57143H12V6.85714C12 4.94197 13.5134 3.42857 15.4286 3.42857ZM25.7143 3.42857C27.6295 3.42857 29.1429 4.94197 29.1429 6.85714V8.57143H30.8571C33.7165 8.57143 36 10.8549 36 13.7143C36 14.0826 35.933 14.4375 35.8393 14.8393L35.6786 15.6964L36.2143 16.3393C37.1652 17.5313 37.7143 18.9643 37.7143 20.5714C37.7143 22.6272 36.8371 24.4621 35.4107 25.7143C34.2388 24.6763 32.7455 24 31.0714 24C29.4509 24 27.9911 24.5759 26.8393 25.5536L29.0357 28.1786C29.5915 27.7098 30.2746 27.4286 31.0714 27.4286C32.7254 27.4286 34.0446 28.6674 34.2321 30.2679C34.0915 32.5246 32.2902 34.2857 30 34.2857C29.846 34.2857 29.6585 34.279 29.3571 34.2321L27.6964 33.9643L27.375 35.625C27.1607 36.8304 26.1362 37.7143 24.8571 37.7143C23.4174 37.7143 22.2857 36.5826 22.2857 35.1429V17.0893C23.7254 18.1875 25.4866 18.8571 27.4286 18.8571V15.4286C24.5692 15.4286 22.2857 13.1451 22.2857 10.2857V6.85714C22.2857 4.94197 23.7991 3.42857 25.7143 3.42857Z" fill="black"/>
</svg>
