<svg width="38" height="38" viewBox="0 0 38 38" fill="none" xmlns="http://www.w3.org/2000/svg">
<path id="Vector" d="M6 0L5.46429 0.696429L0 7.98214V37.7143H37.7143V7.98214L32.25 0.696429L31.7143 0H6ZM7.71429 3.42857H17.1429V6.85714H5.14286L7.71429 3.42857ZM20.5714 3.42857H30L32.5714 6.85714H20.5714V3.42857ZM3.42857 10.2857H34.2857V34.2857H3.42857V10.2857ZM13.3929 13.7143C12.4487 13.8013 11.7522 14.6451 11.8393 15.5893C11.9263 16.5335 12.7701 17.2299 13.7143 17.1429H24C24.6161 17.1496 25.192 16.8281 25.5067 16.2924C25.8147 15.7567 25.8147 15.1004 25.5067 14.5647C25.192 14.029 24.6161 13.7076 24 13.7143H13.7143C13.6607 13.7143 13.6071 13.7143 13.5536 13.7143C13.5 13.7143 13.4464 13.7143 13.3929 13.7143Z" fill="black"/>
</svg>
