<svg width="48" height="35" viewBox="0 0 48 35" fill="none" xmlns="http://www.w3.org/2000/svg">
<path id="Vector" d="M35.7489 0.0109264C31.1385 0.137442 27.5637 1.3901 24.0837 2.5991C20.362 3.89167 16.8484 5.11077 11.9833 5.16048C8.73126 5.21191 5.47401 4.65072 2.27344 3.54329L0 2.75646V32.0399L1.14174 32.4451C4.12288 33.4994 7.17107 34.1074 10.2054 34.2531C10.6871 34.2754 11.1588 34.2866 11.6217 34.2866C16.7868 34.2866 20.741 32.9164 24.5759 31.5913C28.6182 30.1924 32.4311 28.8718 37.6339 29.117C40.3322 29.2455 43.0492 29.7913 45.7132 30.7341L48 31.5444V2.25088L46.8717 1.83905C43.9145 0.767623 40.8599 0.159667 37.7913 0.0276675C37.0876 -0.00361821 36.4075 -0.00714728 35.7489 0.0109264ZM35.8426 3.41606C36.4237 3.39807 37.0213 3.39833 37.6406 3.42276C38.2817 3.45057 38.9232 3.50866 39.5625 3.58347C40.0199 5.4584 41.6982 6.85468 43.7143 6.85468C44.0074 6.85468 44.2937 6.82248 44.5714 6.76762V22.3703C44.2937 22.3154 44.0074 22.2832 43.7143 22.2832C41.5958 22.2832 39.8487 23.8229 39.5022 25.8424C38.933 25.7828 38.3632 25.7423 37.7946 25.7152C31.9404 25.458 27.6235 26.9301 23.4509 28.377C19.4035 29.7793 15.5688 31.1049 10.3694 30.858C9.72514 30.827 9.07975 30.7652 8.43415 30.6873C7.97309 28.8176 6.29803 27.4261 4.28571 27.4261C3.99257 27.4261 3.70629 27.4583 3.42857 27.5132V11.9105C3.70629 11.9653 3.99257 11.9975 4.28571 11.9975C6.4191 11.9975 8.17227 10.4353 8.50112 8.39486C9.67525 8.5176 10.8505 8.58859 12.0201 8.56896C17.4458 8.5141 21.391 7.14024 25.2087 5.81338C28.5702 4.64338 31.7755 3.54197 35.8426 3.41606ZM24 8.56896C20.2183 8.56896 17.1429 12.4141 17.1429 17.1404C17.1429 21.8667 20.2183 25.7118 24 25.7118C27.7817 25.7118 30.8571 21.8667 30.8571 17.1404C30.8571 12.4141 27.7817 8.56896 24 8.56896ZM24 11.9975C25.8583 11.9975 27.4286 14.353 27.4286 17.1404C27.4286 19.9278 25.8583 22.2832 24 22.2832C22.1417 22.2832 20.5714 19.9278 20.5714 17.1404C20.5714 14.353 22.1417 11.9975 24 11.9975ZM36.8571 11.9975C36.1752 11.9975 35.5211 12.2685 35.0389 12.7507C34.5566 13.2329 34.2857 13.887 34.2857 14.569C34.2857 15.2509 34.5566 15.905 35.0389 16.3872C35.5211 16.8695 36.1752 17.1404 36.8571 17.1404C37.5391 17.1404 38.1932 16.8695 38.6754 16.3872C39.1577 15.905 39.4286 15.2509 39.4286 14.569C39.4286 13.887 39.1577 13.2329 38.6754 12.7507C38.1932 12.2685 37.5391 11.9975 36.8571 11.9975ZM11.1429 17.1404C10.4609 17.1404 9.80682 17.4113 9.32458 17.8935C8.84235 18.3758 8.57143 19.0298 8.57143 19.7118C8.57143 20.3938 8.84235 21.0479 9.32458 21.5301C9.80682 22.0123 10.4609 22.2832 11.1429 22.2832C11.8248 22.2832 12.4789 22.0123 12.9611 21.5301C13.4434 21.0479 13.7143 20.3938 13.7143 19.7118C13.7143 19.0298 13.4434 18.3758 12.9611 17.8935C12.4789 17.4113 11.8248 17.1404 11.1429 17.1404Z" fill="black"/>
</svg>
