<svg width="38" height="49" viewBox="0 0 38 49" fill="none" xmlns="http://www.w3.org/2000/svg">
<path id="Vector" d="M34.3393 0L32.5714 0.803571C27.1205 3.20759 19.2455 4.11161 12.5357 6.48214C9.1808 7.66741 6.07366 9.24777 3.75 11.7857C1.42634 14.3237 0 17.8192 0 22.2857C0 26.9063 2.71875 30.0737 5.25 31.875C6.32812 32.6451 7.37277 33.2009 8.25 33.5893C7.19197 35.5513 6.40848 37.3192 5.89286 38.8393C4.95536 41.5781 4.80804 43.721 4.875 45.2679C4.94197 46.8147 5.14286 47.8728 5.14286 47.8393L8.57143 48.1607C8.67857 46.9219 8.35714 46.2723 8.30357 45.1071C8.25 43.942 8.35045 42.3415 9.16071 39.9643C10.7813 35.2165 15.2746 27.4018 26.9464 14.8929L24.4821 12.5357C17.4844 20.0357 12.9643 25.8817 10.0179 30.5893C9.26786 30.2879 8.26339 29.8259 7.23214 29.0893C5.2433 27.6763 3.42857 25.6071 3.42857 22.2857C3.42857 18.5089 4.5067 16.0179 6.26786 14.0893C8.02902 12.1607 10.5938 10.7813 13.6607 9.69643C19.2121 7.73438 26.0826 6.7433 31.9821 4.55357C32.5312 6.63616 34.2857 13.7679 34.2857 24.9107C34.2857 31.2321 32.8058 34.8549 31.0714 36.8571C29.3371 38.8594 27.2478 39.4286 25.3929 39.4286C23.5446 39.4286 21.5491 38.4844 19.8214 37.2857C18.0938 36.0871 16.9018 34.8348 15.6964 34.0714L13.875 36.9643C14.183 37.1585 15.8906 38.7388 17.8929 40.125C19.8951 41.5112 22.433 42.8571 25.3929 42.8571C28.0313 42.8571 31.2589 41.9263 33.6964 39.1071C36.1339 36.2879 37.7143 31.7612 37.7143 24.9107C37.7143 11.5045 34.875 1.875 34.875 1.875L34.3393 0Z" fill="black"/>
</svg>
