<?xml version="1.0" encoding="utf-8"?>
<!-- Generator: Adobe Illustrator 24.2.0, SVG Export Plug-In . SVG Version: 6.00 Build 0)  -->
<svg version="1.1" id="Layer_2" xmlns="http://www.w3.org/2000/svg" xmlns:xlink="http://www.w3.org/1999/xlink" x="0px" y="0px"
	 viewBox="0 0 739.7 158" style="enable-background:new 0 0 739.7 158;" xml:space="preserve">
<style type="text/css">
	.st0{fill:#FFFFFF;}
	.st1{fill:none;stroke:#FFFFFF;stroke-width:29;stroke-miterlimit:10;}
	.st2{fill:none;stroke:#FFFFFF;stroke-width:31;stroke-miterlimit:10;}
</style>
<g>
	<path class="st0" d="M34.9,117.3c1.8,3.5,4.3,6.4,7.3,8.6c3,2.2,6.6,3.8,10.7,4.9c4.1,1.1,8.3,1.6,12.7,1.6c3,0,6.1-0.2,9.5-0.7
		c3.4-0.5,6.6-1.4,9.5-2.9c3-1.4,5.4-3.3,7.4-5.8c2-2.5,3-5.6,3-9.4c0-4.1-1.3-7.4-3.9-9.9c-2.6-2.5-6-4.6-10.2-6.3s-9-3.2-14.4-4.4
		c-5.4-1.3-10.8-2.7-16.3-4.2c-5.6-1.4-11.1-3.1-16.5-5.2c-5.4-2-10.1-4.7-14.4-7.9C15,72.2,11.6,68.1,9,63.3
		c-2.6-4.9-3.9-10.7-3.9-17.6c0-7.7,1.7-14.5,5-20.2c3.3-5.7,7.6-10.5,13-14.3c5.4-3.8,11.4-6.6,18.2-8.5C48,0.9,54.7,0,61.5,0
		C69.4,0,77,0.9,84.2,2.6c7.3,1.8,13.7,4.6,19.3,8.6c5.6,3.9,10.1,9,13.4,15.1c3.3,6.1,5,13.6,5,22.3H89.8
		c-0.3-4.5-1.2-8.2-2.9-11.2c-1.6-3-3.8-5.3-6.4-7c-2.7-1.7-5.7-2.9-9.2-3.6c-3.5-0.7-7.2-1.1-11.3-1.1c-2.7,0-5.4,0.3-8,0.8
		c-2.7,0.6-5.1,1.6-7.3,3c-2.2,1.4-4,3.2-5.4,5.3c-1.4,2.1-2.1,4.8-2.1,8c0,3,0.6,5.4,1.7,7.2c1.1,1.8,3.3,3.5,6.7,5.1
		c3.3,1.6,7.9,3.1,13.7,4.6c5.8,1.6,13.5,3.5,22.9,5.9c2.8,0.6,6.7,1.6,11.7,3.1c5,1.5,10,3.8,14.9,7.1c4.9,3.2,9.2,7.6,12.8,13
		c3.6,5.4,5.4,12.4,5.4,20.8c0,6.9-1.3,13.3-4,19.2c-2.7,5.9-6.7,11-11.9,15.3c-5.3,4.3-11.8,7.6-19.7,10
		c-7.8,2.4-16.9,3.6-27.2,3.6c-8.3,0-16.4-1-24.2-3.1c-7.8-2-14.7-5.2-20.7-9.6c-6-4.4-10.7-9.9-14.3-16.7
		c-3.5-6.8-5.2-14.8-5.1-24.1h32.1C32.1,109.5,33,113.8,34.9,117.3z"/>
</g>
<g>
	<path class="st0" d="M323.5,3.6l63,101.2h0.4V3.6h31.1v150.9h-33.2L322,53.5h-0.4v101h-31.1V3.6H323.5z"/>
</g>
<circle class="st1" cx="660.5" cy="79" r="64.2"/>
<line class="st2" x1="728.7" y1="11" x2="592.7" y2="147"/>
</svg>
