<?xml version="1.0" encoding="utf-8"?>
<!-- Generator: Adobe Illustrator 24.2.0, SVG Export Plug-In . SVG Version: 6.00 Build 0)  -->
<svg version="1.1" id="Layer_1" xmlns="http://www.w3.org/2000/svg" xmlns:xlink="http://www.w3.org/1999/xlink" x="0px" y="0px"
	 viewBox="0 0 248.5 112.8" style="enable-background:new 0 0 248.5 112.8;" xml:space="preserve">
<style type="text/css">
	.st0{fill:#FFFFFF;}
</style>
<g>
	<path class="st0" d="M59.8,17.2C55,13.7,48.9,12,41.6,12c-3,0-6,0.3-8.9,0.9c-2.9,0.6-5.5,1.6-7.7,3c-2.2,1.4-4,3.3-5.4,5.6
		c-1.4,2.4-2,5.3-2,8.8c0,3.3,1,6,2.9,8c2,2.1,4.5,3.7,7.8,5c3.2,1.3,6.9,2.4,11,3.2c4.1,0.9,8.3,1.8,12.5,2.8
		c4.2,1,8.4,2.2,12.5,3.5c4.1,1.4,7.8,3.2,11,5.5c3.2,2.3,5.9,5.2,7.8,8.7c1.9,3.5,2.9,7.9,2.9,13.2c0,5.7-1.3,10.6-3.8,14.6
		c-2.6,4-5.8,7.4-9.8,9.9c-4,2.5-8.5,4.4-13.4,5.5c-5,1.1-9.9,1.7-14.8,1.7c-6,0-11.7-0.8-17-2.2c-5.4-1.5-10-3.8-14.1-6.8
		c-4-3-7.3-6.9-9.6-11.7C1.2,86.5,0,80.9,0,74.4h13.5c0,4.5,0.9,8.4,2.6,11.6c1.7,3.3,4.1,5.9,6.9,8c2.8,2.1,6.2,3.7,10,4.6
		c3.8,1,7.7,1.5,11.7,1.5c3.2,0,6.4-0.3,9.7-0.9c3.2-0.6,6.2-1.6,8.8-3.1c2.6-1.4,4.7-3.4,6.3-5.9c1.6-2.5,2.4-5.7,2.4-9.6
		c0-3.7-1-6.7-2.9-9c-2-2.3-4.6-4.2-7.8-5.6c-3.3-1.4-6.9-2.6-11-3.5c-4.1-0.9-8.3-1.8-12.5-2.8c-4.3-0.9-8.4-2-12.5-3.3
		c-4.1-1.2-7.8-2.9-11-5c-3.3-2-5.9-4.7-7.8-8c-1.9-3.2-2.9-7.3-2.9-12.2c0-5.4,1.1-10.1,3.3-14c2.2-3.9,5.1-7.2,8.8-9.8
		C19,5,23.2,3.1,27.8,1.9C32.5,0.6,37.2,0,42.2,0c5.5,0,10.6,0.7,15.3,1.9c4.7,1.3,8.8,3.4,12.4,6.2c3.5,2.8,6.3,6.3,8.4,10.6
		c2,4.3,3.2,9.3,3.4,15.2H68.1C67.3,26.2,64.5,20.6,59.8,17.2z"/>
	<path class="st0" d="M109.5,32.1v12.3h0.3c5.3-9.4,13.7-14.1,25.2-14.1c5.1,0,9.3,0.7,12.8,2.1c3.4,1.4,6.1,3.4,8.2,5.9
		c2.1,2.5,3.6,5.5,4.4,8.9c0.8,3.5,1.3,7.3,1.3,11.5v51h-12.7V57.1c0-4.8-1.4-8.6-4.2-11.4c-2.8-2.8-6.7-4.2-11.6-4.2
		c-3.9,0-7.3,0.6-10.1,1.8c-2.8,1.2-5.2,2.9-7.1,5.1c-1.9,2.2-3.3,4.8-4.3,7.7c-1,3-1.4,6.2-1.4,9.7v43.8H97.5V32.1H109.5z"/>
	<path class="st0" d="M246.1,55.6c1.4,4.8,2.2,9.9,2.2,15.4c0,5.7-0.8,11-2.4,15.9c-1.6,4.9-4,9.2-7.2,12.8
		c-3.2,3.7-7.1,6.5-11.8,8.6c-4.7,2-10.1,3.1-16.3,3.1c-5.2,0-9.9-0.7-14-2.2c-4.1-1.4-7.7-3.5-10.8-6.2l-9,9.9l-4.2-3.4l9.3-10.4
		c-3-3.7-5.2-7.9-6.8-12.7c-1.5-4.7-2.2-9.9-2.2-15.4c0-5.7,0.8-11,2.4-16c1.6-5,4-9.2,7.2-12.9c3.2-3.6,7.1-6.5,11.8-8.6
		c4.7-2.1,10.1-3.1,16.2-3.1c5.4,0,10.1,0.8,14.2,2.2c4.1,1.5,7.7,3.7,11,6.6l8.7-9.8l4,3.9l-9,9.9
		C242.4,46.7,244.6,50.8,246.1,55.6z M210.6,41.5c-3.3,0-6.4,0.7-9.4,2c-3,1.3-5.5,3.2-7.7,5.7c-2.2,2.5-3.9,5.6-5.2,9.2
		c-1.3,3.7-1.9,7.8-1.9,12.5c0,3.6,0.4,6.9,1.2,9.9c0.8,3,1.9,5.8,3.3,8.2l36.3-40.5C222.8,43.9,217.3,41.5,210.6,41.5z
		 M210.6,100.2c3.3,0,6.4-0.6,9.4-1.9c2.9-1.3,5.5-3.2,7.7-5.6c2.2-2.4,3.9-5.5,5.2-9.1c1.2-3.6,1.9-7.8,1.9-12.5
		c0-3.7-0.4-7-1.1-10c-0.8-2.9-1.8-5.6-3.1-7.9l-36.3,40.3C198.7,97.9,204.2,100.2,210.6,100.2z"/>
</g>
</svg>
