<?xml version="1.0" encoding="UTF-8"?>
<svg xmlns="http://www.w3.org/2000/svg" xmlns:xlink="http://www.w3.org/1999/xlink" id="Layer_2" viewBox="0 0 242.42 39.69">
  <defs>
    <style>.cls-1{fill:none;}.cls-1,.cls-2,.cls-3,.cls-4,.cls-5,.cls-6{stroke-width:0px;}.cls-2{fill:url(#linear-gradient);}.cls-3{fill:url(#linear-gradient-2);}.cls-4{fill:url(#linear-gradient-3);}.cls-5{fill:#3f9990;}.cls-6{fill:#418899;}</style>
    <linearGradient id="linear-gradient" x1="203.53" y1="13.13" x2="217.29" y2="36.97" gradientUnits="userSpaceOnUse">
      <stop offset=".01" stop-color="#3f9990"></stop>
      <stop offset="1" stop-color="#418899"></stop>
    </linearGradient>
    <linearGradient id="linear-gradient-2" x1="214.11" y1=".86" x2="220" y2="11.07" gradientTransform="translate(7.28 -49.76) rotate(13.28)" xlink:href="#linear-gradient"></linearGradient>
    <linearGradient id="linear-gradient-3" x1="223.63" y1="13.3" x2="237.39" y2="37.14" xlink:href="#linear-gradient"></linearGradient>
  </defs>
  <g id="Layer_2-2">
    <path class="cls-2" d="M220.67,28.81l.07-.05-9.2-13.15c-.1-.16-.21-.32-.33-.47l-.07-.1h0c-1.17-1.47-2.98-2.41-5-2.41-3.54,0-6.4,2.87-6.4,6.4,0,1.02.25,1.98.67,2.84l-.06.04c.16.23.31.44.47.67.02.03.04.06.06.09q9.49,13.59,9.5,13.6h0c1.1,1.94,3.18,3.25,5.57,3.25,3.54,0,6.4-2.87,6.4-6.4,0-1.66-.64-3.17-1.67-4.3Z"></path>
    <circle class="cls-3" cx="217.31" cy="6.4" r="6.4" transform="translate(4.34 50.1) rotate(-13.28)"></circle>
    <path class="cls-4" d="M241.38,29.81h0s-.04-.06-.04-.06c-.02-.03-.05-.07-.07-.1l-9.57-13.72h0c-1.12-1.86-3.16-3.12-5.49-3.12-3.54,0-6.4,2.87-6.4,6.4,0,1.33.41,2.56,1.1,3.59h0c6.48,9.17,8.78,12.51,9.59,13.73.11.18.22.36.35.53.11.17.1.17.1.17h.02c1.17,1.49,3,2.47,5.05,2.47,3.54,0,6.4-2.87,6.4-6.4,0-1.29-.38-2.48-1.03-3.48Z"></path>
    <circle class="cls-1" cx="183.23" cy="27.29" r="6.4"></circle>
    <path class="cls-1" d="M141.89,15.3c0-3.01-2.07-3.43-5.78-3.43h-1.97v6.77h1.83c3.85,0,5.92-.56,5.92-3.34Z"></path>
    <path class="cls-1" d="M137.47,24.61h-3.34v7.33h3.2c3.9,0,5.97-.75,5.97-3.53,0-3.2-1.88-3.81-5.83-3.81Z"></path>
    <path class="cls-1" d="M10.43,12.25h-1.83v8.84h1.69c3.85,0,5.69-1.22,5.69-4.18,0-3.53-1.74-4.65-5.55-4.65Z"></path>
    <path class="cls-1" d="M40,19.86c-2.63,0-4.28,1.46-4.75,4.37h9.4c-.28-2.68-2.21-4.37-4.65-4.37Z"></path>
    <path class="cls-5" d="M25,15.68c0-3.48-1.32-6.34-3.76-8.22-2.87-2.21-6.44-2.26-11.09-2.26H0v33.6h8.6v-13.16l7.71,13.16h10.34l-9.16-13.54c4.89-1.03,7.52-4.37,7.52-9.59ZM10.29,21.08h-1.69v-8.84h1.83c3.81,0,5.55,1.13,5.55,4.65,0,2.96-1.83,4.18-5.69,4.18Z"></path>
    <path class="cls-5" d="M40.28,14.88c-7.71,0-12.92,5.59-12.92,12.6s4.93,12.22,13.39,12.22c5.5,0,9.31-2.07,10.76-5.55l-6.16-2.49c-.89,1.83-2.58,2.77-5.08,2.77-3.29,0-5.17-1.97-5.22-5.59h17.62v-.38c0-8.51-4.89-13.58-12.41-13.58ZM35.25,24.23c.47-2.91,2.11-4.37,4.75-4.37,2.44,0,4.37,1.69,4.65,4.37h-9.4Z"></path>
    <path class="cls-5" d="M68.85,25.88c-.33.89-.89,2.07-1.13,3.62-.23-1.55-.75-2.73-1.08-3.62l-3.95-10.25h-8.74l10.43,23.17h6.39l10.53-23.17h-8.51l-3.95,10.25Z"></path>
    <path class="cls-5" d="M88.22,3.88c-2.49,0-4.51,2.07-4.51,4.51s1.97,4.56,4.51,4.56,4.51-2.02,4.51-4.56-2.02-4.51-4.51-4.51Z"></path>
    <rect class="cls-5" x="84.13" y="15.63" width="8.18" height="23.17"></rect>
    <path class="cls-5" d="M110.02,25.88c-.33.89-.89,2.07-1.13,3.62-.24-1.55-.75-2.73-1.08-3.62l-3.95-10.25h-8.74l10.43,23.17h6.39l10.53-23.17h-8.51l-3.95,10.25Z"></path>
    <path class="cls-6" d="M144.38,20.71c4.28-1.17,6.11-3.24,6.11-7.1,0-3.34-1.65-5.88-4.75-7.24-2.54-1.13-5.78-1.18-9.92-1.18h-10.2v33.6h9.49c5.5,0,9.49-.09,12.5-1.69,2.82-1.5,4.37-4.32,4.37-7.9,0-4.98-2.82-8.13-7.61-8.51ZM134.14,11.87h1.97c3.71,0,5.78.42,5.78,3.43,0,2.77-2.07,3.34-5.92,3.34h-1.83v-6.77ZM137.33,31.94h-3.2v-7.33h3.34c3.95,0,5.83.61,5.83,3.81,0,2.77-2.07,3.53-5.97,3.53Z"></path>
    <path class="cls-6" d="M161.25,3.88c-2.49,0-4.51,2.07-4.51,4.51s1.97,4.56,4.51,4.56,4.51-2.02,4.51-4.56-2.02-4.51-4.51-4.51Z"></path>
    <rect class="cls-6" x="157.17" y="15.63" width="8.18" height="23.17"></rect>
    <path class="cls-6" d="M196.14,26.72c-.3-6.6-5.81-11.84-12.94-11.84s-12.92,5.55-12.92,12.41,5.55,12.41,12.92,12.41c3.13,0,5.94-1.02,8.15-2.71-.82-1.08-1.32-2.42-1.32-3.88,0-3.44,2.71-6.23,6.11-6.39ZM183.23,33.69c-3.54,0-6.4-2.87-6.4-6.4s2.87-6.4,6.4-6.4,6.4,2.87,6.4,6.4-2.87,6.4-6.4,6.4Z"></path>
    <path class="cls-6" d="M196.44,26.71c-.1,0-.2.01-.29.01,0,.19.03.37.03.56,0,3.93-1.86,7.43-4.82,9.7,1.17,1.53,3.01,2.53,5.09,2.53,3.54,0,6.4-2.87,6.4-6.4s-2.87-6.4-6.4-6.4Z"></path>
  </g>
</svg>
