<svg width="12" height="10" viewBox="0 0 12 10" fill="none" xmlns="http://www.w3.org/2000/svg">
<path id="Vector" d="M5.56124 4.38692C5.05748 3.40722 3.68617 1.58174 2.4108 0.681749C1.18918 -0.180706 0.723424 -0.0314793 0.41802 0.107088C0.0644177 0.266047 0 0.809194 0 1.12804C0 1.44781 0.175179 3.74645 0.289184 4.13064C0.666885 5.39861 2.00992 5.82682 3.2473 5.68964C3.31033 5.68037 3.37474 5.67157 3.43963 5.66369C3.37567 5.67389 3.31172 5.68223 3.2473 5.68964C1.43434 5.95844 -0.176106 6.61883 1.93577 8.96985C4.25898 11.3751 5.11958 8.45404 5.56124 6.97336C6.00289 8.45404 6.51128 11.2699 9.14499 8.96985C11.1225 6.97336 9.68814 5.95844 7.87518 5.68964C7.81087 5.68253 7.74674 5.67388 7.68285 5.66369C7.74773 5.67157 7.81215 5.68037 7.87518 5.68964C9.11255 5.82728 10.4556 5.39861 10.8333 4.13064C10.9473 3.74692 11.1225 1.44735 11.1225 1.1285C11.1225 0.808731 11.0581 0.266047 10.7045 0.106161C10.3991 -0.0319428 9.9333 -0.181169 8.71168 0.680822C7.4363 1.58221 6.06499 3.40768 5.56124 4.38692Z" fill="black"/>
</svg>
