<svg width="17" height="10" viewBox="0 0 17 10" fill="none" xmlns="http://www.w3.org/2000/svg">
<g id="Group 9">
<path id="Vector" d="M16.8484 5.00008C16.8484 7.21195 16.4777 9.00613 16.0203 9.00613C15.5629 9.00613 15.1924 7.21243 15.1924 5.00008C15.1924 2.78772 15.5631 0.994019 16.0203 0.994019C16.4776 0.994019 16.8484 2.78756 16.8484 5.00008Z" fill="black"/>
<path id="Vector_2" d="M14.7355 5.00008C14.7355 7.46936 13.6813 9.47191 12.3809 9.47191C11.0805 9.47191 10.0264 7.46936 10.0264 5.00008C10.0264 2.53079 11.0804 0.528244 12.3808 0.528244C13.6812 0.528244 14.7353 2.53015 14.7353 5.00008" fill="black"/>
<path id="Vector_3" d="M9.56946 5.00008C9.56946 7.62339 7.46112 9.75 4.86049 9.75C2.25987 9.75 0.151367 7.62291 0.151367 5.00008C0.151367 2.37725 2.25971 0.25 4.86049 0.25C7.46128 0.25 9.56946 2.37677 9.56946 5.00008Z" fill="black"/>
</g>
</svg>
